<svg width="455" height="455" viewBox="0 0 455 455" fill="none" xmlns="http://www.w3.org/2000/svg">
<path fill-rule="evenodd" clip-rule="evenodd" d="M0 0V455H455V0H0ZM141.522 378.002H74.016V174.906H141.522V378.002ZM107.769 147.186H107.323C84.678 147.186 70 131.585 70 112.085C70 92.157 85.107 76.998 108.211 76.998C131.32 76.998 145.521 92.157 145.963 112.085C145.963 131.585 131.32 147.186 107.769 147.186ZM385 378.002H317.476V269.345C317.476 242.054 307.72 223.425 283.281 223.425C264.617 223.425 253.526 235.968 248.64 248.118C246.864 252.458 246.4 258.491 246.4 264.577V378.003H178.863C178.863 378.003 179.768 193.96 178.863 174.907H246.4V203.686C255.373 189.879 271.386 170.139 307.256 170.139C351.693 170.139 385 199.159 385 261.537V378.002Z" fill="#949C81"/>
</svg>
