<svg width="352" height="410" viewBox="0 0 352 410" fill="none" xmlns="http://www.w3.org/2000/svg">
<path d="M267.413 392.621C281.413 392.621 279.413 409.621 279.413 409.621H97.4134C97.4134 409.621 95.4134 392.621 109.413 392.621C122.413 392.621 125.413 386.621 125.413 380.621L124.413 330.621C53.4134 346.621 38.4134 302.621 38.4134 302.621C26.4134 272.621 10.4134 265.621 10.4134 265.621C-13.5866 249.621 11.4134 249.621 11.4134 249.621C37.4134 251.621 51.4134 275.621 51.4134 275.621C73.4134 314.621 110.413 303.621 125.413 297.621C127.413 280.621 134.413 269.621 141.413 262.621C84.4134 256.621 25.4134 234.621 25.4134 136.621C25.4134 108.621 35.4134 85.6211 51.4134 67.6211C48.4134 61.6211 40.4134 35.6211 54.4134 0.621096C54.4134 0.621096 75.4134 -6.3789 124.413 26.6211C166.413 14.6211 210.413 14.6211 252.413 26.6211C301.413 -6.3789 322.413 0.621096 322.413 0.621096C336.413 35.6211 328.413 61.6211 325.413 67.6211C341.413 85.6211 351.413 108.621 351.413 136.621C351.413 234.621 291.413 256.621 234.413 262.621C244.413 270.621 252.413 286.621 252.413 310.621L251.413 380.621C251.413 386.621 254.413 392.621 267.413 392.621Z" fill="#949C81"/>
</svg>
